<?xml version="1.0" standalone="no"?> <!DOCTYPE svg PUBLIC "-//W3C//DTD SVG 1.0//EN" "http://www.w3.org/TR/2001/REC-SVG-20010904/DTD/svg10.dtd" > <svg xmlns="http://www.w3.org/2000/svg" width="100%" height="100%">
<defs >
<font id="lucidasansdemibold" horiz-adv-x="1068" ><font-face
    font-family="Lucida Sans"
    units-per-em="2048"
    panose-1="2 11 7 2 4 5 0 2 0 4"
    ascent="1600"
    descent="-448"
    alphabetic="0" />
<missing-glyph horiz-adv-x="1536" d="M256 0V1280H1280V0H256ZM320 64H1216V1216H320V64Z" />
<glyph unicode=" " glyph-name="space" horiz-adv-x="654" />
<glyph unicode="!" glyph-name="exclam" horiz-adv-x="642" d="M173 0V247H469V0H173ZM222 419L173 1184V1480H469V1184L420 419H222Z" />
<glyph unicode="&quot;" glyph-name="quotedbl" horiz-adv-x="925" d="M148 987L99 1579H395L333 987H148ZM592 987L543 1579H839L778 987H592Z" />
<glyph unicode="#" glyph-name="numbersign" horiz-adv-x="1308" d="M185 0L292 426H18L47 574H329L412 907H114L143 1055H449L556 1480H708L602 1055H864L970 1480H1123L1017 1055H1290L1261 907H980L896 574H1195L1165 426H859L753 0H600L707 426H444L338 0H185ZM481
574H744L827 907H565L481 574Z" />
<glyph unicode="$" glyph-name="dollar" horiz-adv-x="1308" d="M586 -160V4Q419 4 181 78V296Q404 195 586 185V660L535 695Q351 819 287 904T223 1112Q223 1261 320 1360T586 1479V1641H747V1479Q904 1471 1065 1416V1215Q901 1292 747 1306V858L792 828Q981
707 1047 621T1114 411Q1114 249 1016 140T747 3V-160H586ZM716 197Q859 242 859 373Q859 473 716 575V197ZM617 942V1298Q479 1252 479 1134Q479 1030 617 942Z" />
<glyph unicode="%" glyph-name="percent" horiz-adv-x="1604" d="M120 -37L1284 1517H1484L321 -37H120ZM373 740Q212 740 119 839T25 1110Q25 1283 119 1381T377 1480Q540 1480 634 1382T728 1111Q728 937 634 839T373 740ZM375 888Q506 888 506 1111Q506 1332
377 1332Q247 1332 247 1110Q247 888 375 888ZM1224 0Q1063 0 970 99T876 370Q876 543 970 641T1228 740Q1392 740 1485 642T1579 371Q1579 196 1485 98T1224 0ZM1226 148Q1357 148 1357 371Q1357 592 1228 592Q1098 592 1098 370Q1098 148 1226 148Z" />
<glyph unicode="&amp;" glyph-name="ampersand" horiz-adv-x="1525" d="M1417 0H1069L1003 79Q828 -37 618 -37Q379 -37 224 97T68 437Q68 743 437 895Q331 1081 331 1199Q331 1334 448 1426T740 1518Q907 1518 1015 1430T1123 1204Q1123 991 796 839Q923 604
1096 395Q1197 541 1197 802V825H1446Q1446 498 1210 245Q1308 118 1417 0ZM538 742Q355 659 355 491Q355 350 446 252T670 154Q786 154 885 224Q720 433 574 681L538 742ZM703 977Q876 1069 876 1198Q876 1332 744 1332Q612 1332 612 1203Q612 1116 703 977Z"
/>
<glyph unicode="&apos;" glyph-name="quotesingle" horiz-adv-x="506" d="M161 962L99 1579H420L346 962H161Z" />
<glyph unicode="(" glyph-name="parenleft" horiz-adv-x="759" d="M660 1591V1400Q394 1132 394 642Q394 151 660 -117V-308Q417 -177 270 83T123 642Q123 941 267 1197T660 1591Z" />
<glyph unicode=")" glyph-name="parenright" horiz-adv-x="759" d="M99 -308V-117Q364 151 364 639Q364 1132 99 1400V1591Q342 1461 489 1201T636 641Q636 343 491 87T99 -308Z" />
<glyph unicode="*" glyph-name="asterisk" horiz-adv-x="955" d="M545 1181L802 1323L868 1118L577 1082Q579 1095 579 1102Q579 1145 545 1181ZM572 1064L786 863L611 736L487 1002Q543 1013 572 1064ZM468 1002L343 736L169 863L383 1064Q411 1013 468 1002ZM377
1082L86 1118L153 1323L409 1181Q376 1145 376 1102Q376 1095 377 1082ZM369 1480H585L530 1192Q503 1205 477 1205Q451 1205 425 1192L369 1480Z" />
<glyph unicode="+" glyph-name="plus" horiz-adv-x="1629" d="M728 0V506H222V679H728V1184H901V679H1406V506H901V0H728Z" />
<glyph unicode="," glyph-name="comma" horiz-adv-x="506" d="M216 0H93V321H414V72Q414 -321 93 -321V-210Q149 -210 182 -161T216 -32V0Z" />
<glyph unicode="-" glyph-name="hyphus" horiz-adv-x="1308" d="M197 543V728H1110V543H197Z" />
<glyph unicode="." glyph-name="period" horiz-adv-x="506" d="M93 0V321H414V0H93Z" />
<glyph unicode="/" glyph-name="slash" horiz-adv-x="1158" d="M222 -296L755 1480H935L402 -296H222Z" />
<glyph unicode="0" glyph-name="zero" horiz-adv-x="1308" d="M647 -37Q395 -37 238 179T80 740Q80 1089 238 1303T654 1517Q910 1517 1068 1304T1227 744Q1227 389 1069 176T647 -37ZM650 148Q913 148 913 740Q913 1332 654 1332Q395 1332 395 741Q395 148 650 148Z" />
<glyph unicode="1" glyph-name="one" horiz-adv-x="1308" d="M266 0V173H562V1265L266 1191V1369L859 1517V173H1155V0H266Z" />
<glyph unicode="2" glyph-name="two" horiz-adv-x="1308" d="M126 0V234L142 256Q261 415 386 524L507 631Q806 895 806 1094Q806 1203 736 1264T542 1326Q379 1326 164 1216V1433Q390 1517 601 1517Q837 1517 979 1406T1121 1107Q1121 978 1052 872T809 626L709
546Q500 378 461 234H1115V0H126Z" />
<glyph unicode="3" glyph-name="three" horiz-adv-x="1308" d="M180 11V233Q400 148 543 148Q676 148 756 216T837 397Q837 690 408 690H317V867L394 868Q599 868 697 932T796 1131Q796 1332 548 1332Q385 1332 200 1249V1451Q395 1518 611 1518Q840 1518 969
1424T1099 1164Q1099 902 772 794Q1146 708 1146 394Q1146 195 996 79T588 -37Q369 -37 180 11Z" />
<glyph unicode="4" glyph-name="four" horiz-adv-x="1308" d="M765 0V395H74V617L753 1480H1024V617H1197V395H1024V0H765ZM311 617H771V1197L311 617Z" />
<glyph unicode="5" glyph-name="five" horiz-adv-x="1308" d="M233 6V221Q422 148 548 148Q675 148 749 223T824 428Q824 581 706 663T367 746Q313 746 259 737V1480H1109V1246H475L460 927Q780 927 959 796T1139 430Q1139 213 982 88T552 -37Q436 -37 233 6Z" />
<glyph unicode="6" glyph-name="six" horiz-adv-x="1308" d="M389 785Q528 953 745 953Q943 953 1073 823T1203 493Q1203 260 1053 112T667 -37Q391 -37 236 159T81 706Q81 1148 324 1375Q477 1518 753 1518Q903 1518 1125 1464V1248Q923 1333 763 1333Q585 1333
487 1189T389 785ZM907 444Q907 595 841 683T660 771Q551 771 477 691T402 493Q402 338 475 243T666 148Q776 148 841 228T907 444Z" />
<glyph unicode="7" glyph-name="seven" horiz-adv-x="1308" d="M285 0Q306 167 367 293T644 733L992 1240H222V1480H1234V1240Q943 873 778 544T613 0H285Z" />
<glyph unicode="8" glyph-name="eight" horiz-adv-x="1308" d="M417 793Q203 934 203 1133Q203 1305 338 1411T692 1518Q898 1518 1021 1427T1145 1184Q1145 988 895 813Q1211 648 1211 398Q1211 203 1057 83T653 -37Q414 -37 268 73T121 363Q121 624 417 793ZM741
897Q889 1012 889 1143Q889 1229 828 1280T667 1332Q574 1332 517 1287T459 1169Q459 1097 516 1043T741 897ZM563 694Q402 560 402 411Q402 295 482 220T687 145Q796 145 869 204T943 351Q943 427 894 481T701 616L563 694Z" />
<glyph unicode="9" glyph-name="nine" horiz-adv-x="1308" d="M187 11V225Q376 148 540 148Q715 148 816 293T918 690Q777 521 570 521Q375 521 242 656T109 989Q109 1220 259 1368T644 1517Q918 1517 1073 1322T1229 784Q1229 345 982 112Q823 -37 541 -37Q404
-37 187 11ZM405 1035Q405 881 471 792T652 703Q760 703 834 784T908 983Q908 1140 836 1236T645 1332Q535 1332 470 1252T405 1035Z" />
<glyph unicode=":" glyph-name="colon" horiz-adv-x="506" d="M105 0V296H401V0H105ZM105 802V1098H401V802H105Z" />
<glyph unicode=";" glyph-name="semicolon" horiz-adv-x="506" d="M216 0H105V296H401V73Q401 -109 326 -208T105 -321V-210Q216 -178 216 -31V0ZM105 802V1098H401V802H105Z" />
<glyph unicode="&lt;" glyph-name="less" horiz-adv-x="1629" d="M1406 0L222 592L1406 1184V991L610 593V591L1406 193V0Z" />
<glyph unicode="=" glyph-name="equal" horiz-adv-x="1629" d="M222 309V481H1406V309H222ZM222 703V876H1406V703H222Z" />
<glyph unicode="&gt;" glyph-name="greater" horiz-adv-x="1629" d="M222 0V193L1018 591V593L222 991V1184L1406 592L222 0Z" />
<glyph unicode="?" glyph-name="question" horiz-adv-x="1018" d="M279 0V247H576V0H279ZM576 419H279V447Q279 608 427 772L498 850Q642 1009 642 1134Q642 1320 408 1320Q257 1320 62 1231V1457Q261 1517 451 1517Q688 1517 825 1426T963 1178Q963 1034 798
878L731 814Q637 725 607 664T576 504V419Z" />
<glyph unicode="@" glyph-name="at" horiz-adv-x="1729" d="M1061 45Q887 -37 712 -37Q427 -37 244 136T60 578Q60 915 304 1195Q435 1346 618 1431T994 1517Q1275 1517 1463 1339T1651 892Q1651 640 1498 468T1121 296Q958 296 958 405Q958 452 1014 635H993Q915
486 803 391T592 296Q413 296 413 527Q413 764 574 968T924 1172Q948 1172 989 1166Q1049 1158 1120 1158H1254L1143 600Q1132 548 1132 503Q1132 435 1209 435Q1328 435 1425 573T1522 882Q1522 1097 1370 1242T993 1388Q647 1388 407 1118Q189 873 189 581Q189
367 335 230T709 92Q864 92 1018 164L1061 45ZM1011 824L1049 1010Q969 1047 907 1047Q791 1047 719 956Q592 794 592 573Q592 450 663 450Q716 450 820 561T1011 824Z" />
<glyph unicode="A" glyph-name="A" horiz-adv-x="1508" d="M23 0L599 1480H907L1483 0H1167L1013 395H401L247 0H23ZM477 592H937L707 1182L477 592Z" />
<glyph unicode="B" glyph-name="B" horiz-adv-x="1290" d="M185 0V1480H688Q911 1480 1027 1396T1144 1151Q1144 884 789 773Q1204 672 1204 366Q1204 189 1083 95T734 0H185ZM481 864H548Q678 864 754 928T831 1102Q831 1204 770 1240T537 1277H481V864ZM481
210H541Q735 210 808 251T882 403Q882 516 784 591T535 666H481V210Z" />
<glyph unicode="C" glyph-name="C" horiz-adv-x="1459" d="M1376 59Q1161 -37 863 -37Q499 -37 296 168T93 740Q93 1114 297 1315T881 1517Q1123 1517 1362 1460V1219Q1091 1314 908 1314Q674 1314 547 1166T420 744Q420 476 556 326T936 176Q1154 176 1376 286V59Z" />
<glyph unicode="D" glyph-name="D" horiz-adv-x="1624" d="M185 0V1480H822Q1166 1480 1349 1298T1532 771Q1532 405 1338 203T795 0H185ZM493 210H723Q991 210 1098 361Q1205 511 1205 753Q1205 965 1109 1106Q1043 1203 950 1240T679 1277H493V210Z" />
<glyph unicode="E" glyph-name="E" horiz-adv-x="1230" d="M185 0V1480H1110V1277H493V864H999V660H493V210H1157V0H185Z" />
<glyph unicode="F" glyph-name="F" horiz-adv-x="1176" d="M185 0V1480H1116V1277H493V827H1005V623H493V0H185Z" />
<glyph unicode="G" glyph-name="G" horiz-adv-x="1527" d="M1367 35Q1089 -37 887 -37Q504 -37 299 164T93 742Q93 1115 298 1316T884 1517Q1127 1517 1366 1460V1219Q1089 1314 911 1314Q676 1314 548 1164T420 739Q420 473 557 322T935 170Q988 170 1059 185V672H1367V35Z"
/>
<glyph unicode="H" glyph-name="H" horiz-adv-x="1598" d="M185 0V1480H493V879H1105V1480H1413V0H1105V675H493V0H185Z" />
<glyph unicode="I" glyph-name="I" horiz-adv-x="679" d="M185 0V1480H493V0H185Z" />
<glyph unicode="J" glyph-name="J" horiz-adv-x="857" d="M-68 -260L-70 -40Q50 -87 177 -87Q283 -87 323 -28T363 184V1480H672V217Q672 -56 561 -176T198 -296Q72 -296 -68 -260Z" />
<glyph unicode="K" glyph-name="K" horiz-adv-x="1454" d="M185 0V1480H481V762L1047 1480H1303L790 816L1427 0H1042L481 728V0H185Z" />
<glyph unicode="L" glyph-name="L" horiz-adv-x="1191" d="M185 0V1480H493V210H1160V0H185Z" />
<glyph unicode="M" glyph-name="M" horiz-adv-x="1859" d="M185 0V1480H593L949 439L1316 1480H1674V0H1390V1117L1029 99H781L427 1132V0H185Z" />
<glyph unicode="N" glyph-name="N" horiz-adv-x="1574" d="M185 0V1480H456L1142 469V1480H1389V0H1113L432 1011V0H185Z" />
<glyph unicode="O" glyph-name="O" horiz-adv-x="1686" d="M834 -37Q497 -37 295 175T93 740Q93 1097 296 1307T844 1517Q1187 1517 1390 1307T1594 743Q1594 381 1391 172T834 -37ZM838 167Q1036 167 1151 322T1267 744Q1267 1002 1151 1158T844 1314Q651 1314
536 1158T420 741Q420 482 535 325T838 167Z" />
<glyph unicode="P" glyph-name="P" horiz-adv-x="1256" d="M185 0V1480H701Q971 1480 1086 1390T1202 1087Q1202 847 1048 714T615 580H487V0H185ZM487 783H547Q705 783 796 856T888 1056Q888 1277 607 1277H487V783Z" />
<glyph unicode="Q" glyph-name="Q" horiz-adv-x="1687" d="M1589 -296Q1191 -191 941 -32Q868 -37 833 -37Q497 -37 295 175T93 740Q93 1097 296 1307T844 1517Q1189 1517 1391 1307T1594 737Q1594 233 1199 34Q1490 -66 1789 -98L1589 -296ZM839 167Q1036 167
1151 322T1267 743Q1267 1002 1152 1158T844 1314Q651 1314 536 1158T420 741Q420 482 535 325T839 167Z" />
<glyph unicode="R" glyph-name="R" horiz-adv-x="1413" d="M185 0V1480H739Q959 1480 1074 1387T1190 1113Q1190 976 1114 864T903 691L1387 0H1012L645 605H475V0H185ZM475 808H546Q881 808 881 1079Q881 1277 582 1277H475V808Z" />
<glyph unicode="S" glyph-name="S" horiz-adv-x="1170" d="M102 13V267Q341 167 511 167Q630 167 698 220T767 364Q767 436 724 485T561 603L462 658Q263 770 181 872T99 1112Q99 1295 233 1406T589 1517Q766 1517 988 1466V1229Q761 1314 629 1314Q527 1314 466
1269T404 1149Q404 1088 447 1042T609 929L715 870Q929 750 1010 649T1091 403Q1091 197 938 80T516 -37Q338 -37 102 13Z" />
<glyph unicode="T" glyph-name="T" horiz-adv-x="1413" d="M552 0V1277H22V1480H1391V1277H861V0H552Z" />
<glyph unicode="U" glyph-name="U" horiz-adv-x="1508" d="M173 1480H481V573Q481 358 552 263T781 167Q932 167 999 258T1067 551V1480H1335V571Q1335 366 1296 259T1154 72Q1013 -37 775 -37Q520 -37 365 79Q258 159 216 268T173 574V1480Z" />
<glyph unicode="V" glyph-name="V" horiz-adv-x="1431" d="M572 0L25 1480H354L778 335L1188 1480H1410L881 0H572Z" />
<glyph unicode="W" glyph-name="W" horiz-adv-x="1851" d="M390 0L21 1480H312L582 397L837 1480H1094L1336 403L1620 1480H1833L1445 0H1151L923 1015L684 0H390Z" />
<glyph unicode="X" glyph-name="X" horiz-adv-x="1366" d="M49 0L523 729L70 1480H429L730 982L1056 1480H1305L851 782L1321 0H963L642 529L298 0H49Z" />
<glyph unicode="Y" glyph-name="Y" horiz-adv-x="1406" d="M537 0V620L40 1480H380L741 855L1118 1480H1362L845 622V0H537Z" />
<glyph unicode="Z" glyph-name="Z" horiz-adv-x="1320" d="M106 0V210L842 1277H148V1480H1200V1277L464 210H1200V0H106Z" />
<glyph unicode="[" glyph-name="bracketleft" horiz-adv-x="759" d="M197 -296V1579H660V1406H444V-123H660V-296H197Z" />
<glyph unicode="\" glyph-name="backslash" horiz-adv-x="1158" d="M935 -296H755L222 1480H402L935 -296Z" />
<glyph unicode="]" glyph-name="bracketright" horiz-adv-x="759" d="M562 -296H99V-123H315V1406H99V1579H562V-296Z" />
<glyph unicode="^" glyph-name="asciicircum" horiz-adv-x="1357" d="M1270 395H1077L679 1191H677L279 395H86L678 1579L1270 395Z" />
<glyph unicode="_" glyph-name="underscore" horiz-adv-x="1024" d="M86 -160V0H937V-160H86Z" />
<glyph unicode="`" glyph-name="grave" horiz-adv-x="1308" d="M867 1283H676L355 1604H626L867 1283Z" />
<glyph unicode="a" glyph-name="a" horiz-adv-x="1204" d="M723 118Q575 -25 406 -25Q262 -25 172 63T82 291Q82 473 227 571T644 670H723V770Q723 941 528 941Q355 941 178 843V1047Q379 1123 576 1123Q1007 1123 1007 780V294Q1007 165 1090 165Q1105 165 1129
169L1136 3Q1042 -25 970 -25Q788 -25 736 118H723ZM723 277V500H653Q519 500 443 452T366 320Q366 259 407 218T510 176Q614 176 723 277Z" />
<glyph unicode="b" glyph-name="b" horiz-adv-x="1357" d="M185 0V1579H481V891Q595 1123 840 1123Q1038 1123 1151 978T1265 579Q1265 304 1137 140T795 -25Q611 -25 481 111L426 0H185ZM481 287Q589 167 711 167Q820 167 885 272T950 554Q950 891 733 891Q602
891 481 722V287Z" />
<glyph unicode="c" glyph-name="c" horiz-adv-x="1090" d="M995 24Q811 -25 654 -25Q391 -25 239 129T86 550Q86 819 243 971T677 1123Q811 1123 986 1080V866Q804 925 695 925Q562 925 481 823T400 552Q400 379 487 275T721 171Q854 171 995 229V24Z" />
<glyph unicode="d" glyph-name="d" horiz-adv-x="1357" d="M876 0V207Q762 -25 517 -25Q319 -25 206 120T93 519Q93 795 220 959T563 1123Q735 1123 876 987V1579H1173V0H876ZM876 811Q769 931 647 931Q538 931 473 826T408 544Q408 207 624 207Q756 207 876 376V811Z" />
<glyph unicode="e" glyph-name="e" horiz-adv-x="1200" d="M1079 37Q868 -25 679 -25Q404 -25 245 131T86 557Q86 812 231 967T616 1123Q857 1123 968 971T1079 490H398Q428 176 743 176Q892 176 1079 245V37ZM394 657H788Q788 938 607 938Q423 938 394 657Z" />
<glyph unicode="f" glyph-name="f" horiz-adv-x="849" d="M216 0V913H65V1098H216V1177Q216 1604 621 1604Q752 1604 891 1566V1366Q765 1419 665 1419Q581 1419 547 1367T512 1188V1098H790V913H512V0H216Z" />
<glyph unicode="g" glyph-name="g" horiz-adv-x="1351" d="M193 -341L217 -126Q400 -210 566 -210Q730 -210 803 -140T876 87V237Q768 0 519 0Q323 0 208 146T93 543Q93 806 222 964T565 1123Q733 1123 876 987L907 1098H1173V260Q1173 9 1143 -102T1024 -291Q876
-419 607 -419Q416 -419 193 -341ZM876 409V814Q769 935 652 935Q540 935 474 833T408 559Q408 237 615 237Q758 237 876 409Z" />
<glyph unicode="h" glyph-name="h" horiz-adv-x="1345" d="M185 0V1579H481V891Q626 1123 855 1123Q1002 1123 1087 1030T1172 776V0H876V703Q876 890 752 890Q611 890 481 691V0H185Z" />
<glyph unicode="i" glyph-name="i" horiz-adv-x="666" d="M185 0V1098H481V0H185ZM185 1283V1530H481V1283H185Z" />
<glyph unicode="j" glyph-name="j" horiz-adv-x="682" d="M-179 -373V-175Q-50 -234 42 -234Q128 -234 164 -181T201 0V1098H497V20Q497 -210 395 -315T67 -420Q-33 -420 -179 -373ZM201 1283V1530H497V1283H201Z" />
<glyph unicode="k" glyph-name="k" horiz-adv-x="1296" d="M185 0V1579H481V586H500L891 1098H1137L776 628L1250 0H890L500 549H481V0H185Z" />
<glyph unicode="l" glyph-name="l" horiz-adv-x="666" d="M185 0V1579H481V0H185Z" />
<glyph unicode="m" glyph-name="m" horiz-adv-x="1986" d="M185 0V1098H469V891Q599 1123 839 1123Q963 1123 1043 1062T1141 891Q1295 1123 1513 1123Q1814 1123 1814 791V0H1530V694Q1530 889 1400 889Q1267 889 1141 697V0H857V694Q857 890 726 890Q595 890
469 697V0H185Z" />
<glyph unicode="n" glyph-name="n" horiz-adv-x="1345" d="M185 0V1098H481V891Q626 1123 855 1123Q1002 1123 1087 1030T1172 776V0H876V703Q876 890 752 890Q611 890 481 691V0H185Z" />
<glyph unicode="o" glyph-name="o" horiz-adv-x="1308" d="M646 -25Q389 -25 238 130T86 549Q86 815 238 969T653 1123Q916 1123 1068 969T1221 551Q1221 281 1068 128T646 -25ZM651 160Q771 160 838 263T906 551Q906 730 839 834T653 938Q536 938 469 834T401
549Q401 370 468 265T651 160Z" />
<glyph unicode="p" glyph-name="p" horiz-adv-x="1357" d="M185 -395V1098H481V891Q595 1123 840 1123Q1038 1123 1151 978T1265 579Q1265 303 1137 139T794 -25Q621 -25 481 111V-395H185ZM481 287Q589 167 711 167Q820 167 885 272T950 554Q950 891 733 891Q602
891 481 722V287Z" />
<glyph unicode="q" glyph-name="q" horiz-adv-x="1357" d="M876 -395V207Q762 -25 517 -25Q319 -25 206 120T93 519Q93 795 220 959T563 1123Q735 1123 876 987L913 1098H1173V-395H876ZM876 811Q769 931 647 931Q538 931 473 826T408 544Q408 207 624 207Q756
207 876 376V811Z" />
<glyph unicode="r" glyph-name="r" horiz-adv-x="931" d="M185 0V1098H481V891Q596 1123 831 1123Q859 1123 886 1117V853Q823 876 769 876Q592 876 481 697V0H185Z" />
<glyph unicode="s" glyph-name="s" horiz-adv-x="1158" d="M156 35V252Q376 160 532 160Q714 160 714 284Q714 364 564 424L464 464Q301 530 231 606T161 794Q161 950 280 1036T613 1123Q747 1123 932 1084V876Q754 938 637 938Q453 938 453 824Q453 749 589 697L675
664Q868 591 943 516T1019 323Q1019 168 891 72T556 -25Q358 -25 156 35Z" />
<glyph unicode="t" glyph-name="t" horiz-adv-x="830" d="M751 6Q645 -25 584 -25Q383 -25 291 61T199 335V913H76V1098H199V1283L495 1317V1098H730V913H495V374Q495 172 660 172Q698 172 751 186V6Z" />
<glyph unicode="u" glyph-name="u" horiz-adv-x="1345" d="M864 0V207Q720 -25 490 -25Q343 -25 258 68T173 322V1098H469V395Q469 208 594 208Q734 208 864 407V1098H1160V0H864Z" />
<glyph unicode="v" glyph-name="v" horiz-adv-x="1215" d="M456 0L37 1098H349L656 306L961 1098H1175L752 0H456Z" />
<glyph unicode="w" glyph-name="w" horiz-adv-x="1767" d="M379 0L74 1098H349L565 329L795 1098H1051L1258 325L1491 1098H1697L1371 0H1087L887 753L663 0H379Z" />
<glyph unicode="x" glyph-name="x" horiz-adv-x="1210" d="M68 0L445 551L84 1098H421L657 750L883 1098H1123L779 559L1148 0H811L565 363L313 0H68Z" />
<glyph unicode="y" glyph-name="y" horiz-adv-x="1194" d="M189 -395L438 0L31 1098H349L621 364L944 1098H1169L491 -395H189Z" />
<glyph unicode="z" glyph-name="z" horiz-adv-x="1210" d="M123 0V197L737 913H151V1098H1087V913L473 197H1099V0H123Z" />
<glyph unicode="{" glyph-name="braceleft" horiz-adv-x="759" d="M99 740H148Q286 740 286 870Q286 940 267 1013L244 1105Q222 1194 222 1275Q222 1417 332 1498T636 1579V1406Q542 1400 506 1373T470 1278Q470 1249 480 1188L495 1103Q506 1034 506 961Q506
756 309 642Q506 526 506 322Q506 249 495 180L480 95Q470 34 470 5Q470 -62 506 -89T636 -123V-296Q442 -296 332 -215T222 8Q222 89 244 178L267 270Q286 343 286 414Q286 543 148 543H99V740Z" />
<glyph unicode="|" glyph-name="bar" horiz-adv-x="790" d="M308 -296V1579H481V-296H308Z" />
<glyph unicode="}" glyph-name="braceright" horiz-adv-x="759" d="M636 740V543H586Q449 543 449 413Q449 343 467 270L490 178Q513 89 513 8Q513 -134 403 -215T99 -296V-123Q193 -117 229 -90T265 5Q265 34 255 95L240 180Q229 249 229 322Q229 526 425 642Q229
756 229 961Q229 1034 240 1103L255 1188Q265 1249 265 1278Q265 1345 229 1372T99 1406V1579Q293 1579 403 1498T513 1275Q513 1194 490 1105L467 1013Q449 940 449 869Q449 740 586 740H636Z" />
<glyph unicode="~" glyph-name="asciitilde" horiz-adv-x="1628" d="M222 444Q222 765 495 765Q597 765 735 709L813 677L905 641L998 605Q1108 561 1162 561Q1308 561 1308 731V740H1406Q1406 589 1334 504T1134 419Q1031 419 893 475L816 507L724 543L630 580Q520
623 466 623Q321 623 321 453V444H222Z" />
</font>
</defs>
</svg>
